External Loads File
version=1
nRows=31
nColumns=13
Range=5.000000e-03-10 seconds
endheader
time 	forceRightX 	forceRightY 	forceRightZ 	pointRightX 	pointRightY 	pointRightZ 	forceLeftX 	forceLeftY 	forceLeftZ 	pointLeftX 	pointLeftY 	pointLeftZ 		
0.005000 80.312189 138.859802 -0.000000 0.137797 0.325346 -0.124936 -54.642869 131.595178 -0.000000 0.463542 0.321358 -0.367211
0.010000 80.861271 138.198307 -0.000000 0.137788 0.325328 -0.124940 -54.643394 131.345925 -0.000000 0.463561 0.321355 -0.367207
0.015000 81.339592 137.567146 -0.000000 0.137775 0.325322 -0.124947 -54.674217 131.122429 -0.000000 0.463564 0.321380 -0.367192
0.020000 81.715490 136.980601 -0.000000 0.137672 0.325303 -0.124927 -54.723444 130.939926 -0.000000 0.463569 0.321392 -0.367210
0.025000 81.827084 136.518537 -0.000000 0.137812 0.325416 -0.124746 -54.890082 130.745202 -0.000000 0.463485 0.321823 -0.367199
0.030000 81.931810 136.014125 -0.000000 0.137687 0.325485 -0.124794 -54.876066 130.642440 -0.000000 0.463522 0.321820 -0.367154
0.035000 81.810638 135.608816 -0.000000 0.137686 0.325434 -0.124790 -54.880396 130.532195 -0.000000 0.463518 0.321862 -0.367143
0.040000 81.599128 135.252913 -0.000000 0.137687 0.325415 -0.124782 -54.813533 130.442945 -0.000000 0.463512 0.321895 -0.367143
0.045000 81.335761 134.962884 -0.000000 0.137681 0.325387 -0.124779 -54.699689 130.356437 -0.000000 0.463509 0.321942 -0.367134
0.050000 81.089095 134.731633 -0.000000 0.137683 0.325358 -0.124776 -54.521581 130.272915 -0.000000 0.463505 0.321985 -0.367127
0.055000 80.895148 134.557410 -0.000000 0.137684 0.325343 -0.124776 -54.277713 130.194164 -0.000000 0.463499 0.322034 -0.367120
0.060000 80.759687 134.437015 -0.000000 0.137692 0.325312 -0.124781 -53.991043 130.125672 -0.000000 0.463487 0.322053 -0.367126
0.065000 80.641390 134.376406 -0.000000 0.137687 0.325286 -0.124778 -53.726160 130.066980 -0.000000 0.463483 0.322101 -0.367124
0.070000 80.533758 134.356556 -0.000000 0.137686 0.325270 -0.124781 -53.515474 130.030635 -0.000000 0.463481 0.322123 -0.367124
0.075000 80.409053 134.382410 -0.000000 0.137684 0.325253 -0.124775 -53.420082 130.005483 -0.000000 0.463478 0.322150 -0.367112
0.080000 80.280037 134.439495 -0.000000 0.137683 0.325237 -0.124773 -53.449497 129.987743 -0.000000 0.463477 0.322160 -0.367114
0.085000 80.129168 134.525287 -0.000000 0.137686 0.325216 -0.124779 -53.608777 129.966459 -0.000000 0.463471 0.322196 -0.367108
0.090000 79.989008 134.607345 -0.000000 0.137677 0.325203 -0.124790 -53.838691 129.954627 -0.000000 0.463470 0.322200 -0.367124
0.095000 79.850269 134.689850 -0.000000 0.137652 0.325195 -0.124768 -54.135393 129.948655 -0.000000 0.463484 0.322231 -0.367125
0.100000 79.771704 134.752683 -0.000000 0.137657 0.325192 -0.124780 -54.450369 129.973893 -0.000000 0.463486 0.322237 -0.367118
0.105000 79.782865 134.802601 -0.000000 0.137642 0.325179 -0.124780 -54.765984 130.042091 -0.000000 0.463493 0.322234 -0.367122
0.110000 79.905080 134.839862 -0.000000 0.137639 0.325181 -0.124774 -55.047032 130.159614 -0.000000 0.463506 0.322247 -0.367108
0.115000 80.115612 134.865449 -0.000000 0.137624 0.325162 -0.124766 -55.273985 130.321456 -0.000000 0.463504 0.322247 -0.367120
0.120000 80.381373 134.874239 -0.000000 0.137632 0.325162 -0.124768 -55.449133 130.520227 -0.000000 0.463518 0.322263 -0.367130
0.125000 80.677873 134.862539 -0.000000 0.137625 0.325152 -0.124766 -55.601011 130.737440 -0.000000 0.463528 0.322259 -0.367114
0.130000 80.982485 134.834292 -0.000000 0.137617 0.325150 -0.124773 -55.769372 130.939869 -0.000000 0.463523 0.322285 -0.367131
0.135000 81.291462 134.785044 -0.000000 0.137617 0.325130 -0.124767 -55.957952 131.106488 -0.000000 0.463526 0.322296 -0.367122
0.140000 81.587995 134.717888 -0.000000 0.137617 0.325119 -0.124763 -56.144380 131.234251 -0.000000 0.463527 0.322304 -0.367135
0.145000 81.823671 134.654096 -0.000000 0.137626 0.325104 -0.124763 -56.290601 131.328693 -0.000000 0.463530 0.322322 -0.367137
0.150000 81.970057 134.604050 -0.000000 0.137643 0.325085 -0.124780 -56.321341 131.406352 -0.000000 0.463529 0.322328 -0.367133
0.155000 81.993266 134.587629 -0.000000 0.137650 0.325056 -0.124786 -56.211745 131.464930 -0.000000 0.463530 0.322345 -0.367131
